<?xml version="1.0" encoding="UTF-8" standalone="no"?><!DOCTYPE svg PUBLIC "-//W3C//DTD SVG 1.1//EN" "http://www.w3.org/Graphics/SVG/1.1/DTD/svg11.dtd"><svg width="100%" height="100%" viewBox="0 0 223 257" version="1.1" xmlns="http://www.w3.org/2000/svg" xmlns:xlink="http://www.w3.org/1999/xlink" xml:space="preserve" xmlns:serif="http://www.serif.com/" style="fill-rule:evenodd;clip-rule:evenodd;stroke-linejoin:round;stroke-miterlimit:2;"><path d="M103.025,4.766c5.108,-2.949 11.402,-2.949 16.51,-0c20.612,11.9 74.158,42.815 94.77,54.716c5.108,2.949 8.255,8.399 8.255,14.297l-0,109.432c-0,5.898 -3.147,11.348 -8.255,14.297c-20.612,11.901 -74.158,42.816 -94.77,54.716c-5.108,2.949 -11.402,2.949 -16.51,0c-20.612,-11.9 -74.158,-42.815 -94.77,-54.716c-5.108,-2.949 -8.255,-8.399 -8.255,-14.297c-0,-23.801 -0,-85.631 -0,-109.432c-0,-5.898 3.147,-11.348 8.255,-14.297c20.612,-11.901 74.158,-42.816 94.77,-54.716Zm68.254,113.97c1.929,1.212 4.211,1.914 6.655,1.914c6.916,-0 12.531,-5.615 12.531,-12.531c0,-2.517 -0.743,-4.861 -2.022,-6.825l13.449,-13.667c0.772,-0.785 0.772,-2.059 -0,-2.843c-0.772,-0.785 -2.026,-0.785 -2.798,-0l-13.335,13.55c-2.144,-1.718 -4.866,-2.746 -7.825,-2.746c-6.916,0 -12.531,5.615 -12.531,12.531c0,3.032 1.079,5.813 2.873,7.981l-11.913,12.107c-0.773,0.785 -0.773,2.059 -0,2.843c0.772,0.785 2.025,0.785 2.798,0l12.118,-12.314Zm6.655,-18.753c4.49,0 8.136,3.646 8.136,8.136c-0,4.49 -3.646,8.136 -8.136,8.136c-4.49,-0 -8.136,-3.646 -8.136,-8.136c0,-4.49 3.646,-8.136 8.136,-8.136Zm-127.317,42.376l-26.454,-11.135c-1.009,-0.425 -2.167,0.063 -2.585,1.088c-0.418,1.025 0.062,2.202 1.07,2.627l26.454,11.135c1.009,0.424 2.168,-0.063 2.585,-1.088c0.418,-1.025 -0.062,-2.202 -1.07,-2.627Zm58.999,-63.3l-0,37.079c-0,1.11 0.886,2.011 1.978,2.011c1.092,-0 1.979,-0.901 1.979,-2.011l-0,-37.103c7.38,-1.028 13.074,-7.468 13.074,-15.249c-0,-7.78 -5.694,-14.22 -13.074,-15.248l-0,-20.398c-0,-1.11 -0.887,-2.011 -1.979,-2.011c-1.092,0 -1.978,0.901 -1.978,2.011l-0,20.373c-7.471,0.945 -13.261,7.427 -13.261,15.273c0,7.846 5.79,14.329 13.261,15.273Zm-0,-26.482c0.613,-0.106 1.243,-0.161 1.885,-0.161c0.708,0 1.4,0.067 2.072,0.195c5.187,0.988 9.117,5.619 9.117,11.175c0,5.557 -3.93,10.187 -9.117,11.176c-0.672,0.128 -1.364,0.195 -2.072,0.195c-0.642,-0 -1.272,-0.056 -1.885,-0.161c-5.279,-0.912 -9.304,-5.587 -9.304,-11.21c-0,-5.622 4.025,-10.297 9.304,-11.209Zm28.248,67.847l4.631,-11.36c0.418,-1.026 -0.062,-2.203 -1.071,-2.627c-1.009,-0.425 -2.167,0.063 -2.585,1.088l-4.631,11.36c-0.417,1.025 0.062,2.202 1.071,2.627c1.009,0.425 2.167,-0.063 2.585,-1.088Zm36.234,25.637l25.237,-11.136c1.002,-0.441 1.462,-1.627 1.027,-2.644c-0.435,-1.018 -1.601,-1.486 -2.603,-1.044l-25.237,11.135c-1.001,0.442 -1.461,1.627 -1.026,2.645c0.434,1.018 1.601,1.485 2.602,1.044Zm-133.012,26.863c-0.841,0.964 -0.841,2.4 -0,3.364c51.036,58.52 86.877,58.227 141.011,0.061c0.914,-0.982 0.914,-2.504 -0,-3.487c-54.134,-58.165 -89.975,-58.459 -141.011,0.062Zm92.618,-13.155c1.925,-0 3.488,1.563 3.488,3.488c0,1.926 -1.563,3.489 -3.488,3.489c-1.926,0 -3.489,-1.563 -3.489,-3.489c0,-1.925 1.563,-3.488 3.489,-3.488Zm-4.53,-13.49c1.461,1.429 2.371,3.437 2.371,5.659c-0,4.335 -3.464,7.855 -7.73,7.855c-3.191,-0 -5.933,-1.969 -7.113,-4.775c-0.367,-0.906 -0.569,-1.896 -0.569,-2.933c-0,-4.313 3.501,-7.814 7.814,-7.814c2.009,-0 3.842,0.76 5.227,2.008Zm-38.189,-2.768c-6.966,5.886 -11.393,14.686 -11.393,24.511c-0,13.159 7.942,24.479 19.29,29.423c-0.005,0.008 -0.009,0.016 -0.014,0.024c3.916,1.758 8.247,2.735 12.801,2.735c5.381,0 10.452,-1.364 14.894,-3.77c10.212,-5.369 17.183,-16.083 17.183,-28.412c-0,-9.118 -3.812,-17.352 -9.928,-23.194c12.163,5.743 24.972,15.863 39.227,30.339c0.981,0.996 0.981,2.595 0,3.591c-47.138,47.869 -78.467,48.106 -122.918,-0.061c-0.905,-0.98 -0.905,-2.49 -0,-3.47c14.899,-16.144 28.324,-26.851 41.363,-32.148c-0.169,0.142 -0.338,0.286 -0.505,0.432Zm0.666,-24.626l-12.138,-29.779c-0.418,-1.025 -1.577,-1.512 -2.585,-1.088c-1.009,0.425 -1.489,1.602 -1.071,2.627l12.138,29.779c0.418,1.025 1.576,1.513 2.585,1.088c1.009,-0.425 1.489,-1.602 1.071,-2.627Zm-49.077,-11.352c-1.496,2.064 -2.378,4.601 -2.378,7.342c0,6.916 5.615,12.531 12.531,12.531c2.669,0 5.145,-0.836 7.179,-2.261l5.811,5.905c0.772,0.785 2.026,0.785 2.798,0c0.772,-0.784 0.772,-2.058 -0,-2.843l-5.746,-5.839c1.563,-2.09 2.489,-4.684 2.489,-7.493c0,-6.916 -5.615,-12.531 -12.531,-12.531c-2.736,0 -5.269,0.879 -7.331,2.37l-21.93,-22.285c-0.772,-0.785 -2.026,-0.785 -2.798,-0c-0.772,0.784 -0.772,2.058 -0,2.843l21.906,22.261Zm17.057,11.646c-0.714,1.143 -1.704,2.095 -2.875,2.765c-1.188,0.679 -2.564,1.067 -4.029,1.067c-4.49,0 -8.136,-3.646 -8.136,-8.136c0,-1.512 0.414,-2.928 1.133,-4.141c0.688,-1.16 1.656,-2.135 2.81,-2.831c1.225,-0.738 2.66,-1.163 4.193,-1.163c4.49,-0 8.136,3.645 8.136,8.135c-0,1.58 -0.451,3.056 -1.232,4.304Zm88.863,-24.832l15.017,-36.842c0.417,-1.025 -0.062,-2.202 -1.071,-2.627c-1.009,-0.424 -2.167,0.063 -2.585,1.089l-15.017,36.841c-0.418,1.025 0.062,2.202 1.071,2.627c1.008,0.424 2.167,-0.063 2.585,-1.088Zm-74.797,-19.507l-7.693,-18.873c-0.418,-1.026 -1.576,-1.513 -2.585,-1.089c-1.008,0.425 -1.488,1.602 -1.07,2.627l7.693,18.874c0.418,1.025 1.576,1.512 2.585,1.088c1.008,-0.425 1.488,-1.602 1.07,-2.627Z" style="fill:#fff;"/></svg>